HIERARCHY
ROOT Hips
{
  OFFSET 0 0 0
  CHANNELS 6 Xposition Yposition Zposition Zrotation Yrotation Xrotation
  JOINT LowerBack
  {
    OFFSET 0 20.6881 -0.73152
    CHANNELS 3 Zrotation Xrotation Yrotation
    JOINT Spine1
    {
      OFFSET 0 11.7043 -0.48768
      CHANNELS 3 Zrotation Xrotation Yrotation
      JOINT Neck
      {
        OFFSET 0 22.1894 -2.19456
        CHANNELS 3 Zrotation Xrotation Yrotation
        JOINT Head
        {
          OFFSET -0.24384 7.07133 1.2192
          CHANNELS 3 Zrotation Xrotation Yrotation
          JOINT leftEye
          {
            OFFSET 4.14528 8.04674 8.04672
            CHANNELS 3 Zrotation Xrotation Yrotation
            End Site
            {
              OFFSET 1 0 0
            }
          }
          JOINT rightEye
          {
            OFFSET -3.6576 8.04674 8.04672
            CHANNELS 3 Zrotation Xrotation Yrotation
            End Site
            {
              OFFSET 1 0 0
            }
          }
        }
      }
      JOINT RightShoulder
      {
        OFFSET -2.68224 19.2634 -4.8768
        CHANNELS 3 Zrotation Xrotation Yrotation
        JOINT RightArm
        {
          OFFSET -8.77824 -1.95073 1.46304
          CHANNELS 3 Zrotation Xrotation Yrotation
          JOINT RightForeArm
          {
            OFFSET -28.1742 -1.7115 0.48768
            CHANNELS 3 Zrotation Xrotation Yrotation
            JOINT RightHand
            {
              OFFSET -22.5879 0.773209 7.07136
              CHANNELS 3 Zrotation Xrotation Yrotation
              JOINT RThumb
              {
                OFFSET -1.2192 -0.487915 3.41376
                CHANNELS 3 Zrotation Xrotation Yrotation
                JOINT rThumb2
                {
                  OFFSET -3.37035 -0.52449 3.41376
                  CHANNELS 3 Zrotation Xrotation Yrotation
                  End Site
                  {
                    OFFSET -1.78271 -1.18214 1.43049
                  }
                }
              }
              JOINT rIndex1
              {
                OFFSET -7.75947 0.938293 5.60832
                CHANNELS 3 Zrotation Xrotation Yrotation
                JOINT rIndex2
                {
                  OFFSET -2.54057 -0.884171 1.56538
                  CHANNELS 3 Zrotation Xrotation Yrotation
                  End Site
                  {
                    OFFSET -1.62519 -0.234802 1.16502
                  }
                }
              }
              JOINT rMid1
              {
                OFFSET -8.24714 1.18213 3.41376
                CHANNELS 3 Zrotation Xrotation Yrotation
                JOINT rMid2
                {
                  OFFSET -3.10165 -0.590103 1.0647
                  CHANNELS 3 Zrotation Xrotation Yrotation
                  End Site
                  {
                    OFFSET -2.48547 -0.328903 0.83742
                  }
                }
              }
              JOINT rRing1
              {
                OFFSET -8.82822 0.546677 1.51678
                CHANNELS 3 Zrotation Xrotation Yrotation
                JOINT rRing2
                {
                  OFFSET -2.60934 -0.819778 -0.0198488
                  CHANNELS 3 Zrotation Xrotation Yrotation
                  End Site
                  {
                    OFFSET -2.33842 -0.294052 0.168128
                  }
                }
              }
              JOINT rPinky1
              {
                OFFSET -8.27202 -0.0477905 -0.4584
                CHANNELS 3 Zrotation Xrotation Yrotation
                JOINT rPinky2
                {
                  OFFSET -1.82734 -0.647385 -0.700984
                  CHANNELS 3 Zrotation Xrotation Yrotation
                  End Site
                  {
                    OFFSET -1.69225 -0.51767 -0.607171
                  }
                }
              }
            }
          }
        }
      }
      JOINT LeftShoulder
      {
        OFFSET 2.68224 19.2634 -4.8768
        CHANNELS 3 Zrotation Xrotation Yrotation
        JOINT LeftArm
        {
          OFFSET 8.77824 -1.95073 1.46304
          CHANNELS 3 Zrotation Xrotation Yrotation
          JOINT LeftForeArm
          {
            OFFSET 28.1742 -1.7115 0.48768
            CHANNELS 3 Zrotation Xrotation Yrotation
            JOINT LeftHand
            {
              OFFSET 22.5879 0.773209 7.07136
              CHANNELS 3 Zrotation Xrotation Yrotation
              JOINT LThumb
              {
                OFFSET 1.2192 -0.487915 3.41376
                CHANNELS 3 Zrotation Xrotation Yrotation
                JOINT lThumb2
                {
                  OFFSET 3.37035 -0.52449 3.41376
                  CHANNELS 3 Zrotation Xrotation Yrotation
                  End Site
                  {
                    OFFSET 1.78271 -1.18214 1.43049
                  }
                }
              }
              JOINT lIndex1
              {
                OFFSET 7.75947 0.938293 5.60832
                CHANNELS 3 Zrotation Xrotation Yrotation
                JOINT lIndex2
                {
                  OFFSET 2.54057 -0.884171 1.56538
                  CHANNELS 3 Zrotation Xrotation Yrotation
                  End Site
                  {
                    OFFSET 1.62519 -0.234802 1.16502
                  }
                }
              }
              JOINT lMid1
              {
                OFFSET 8.24714 1.18213 3.41376
                CHANNELS 3 Zrotation Xrotation Yrotation
                JOINT lMid2
                {
                  OFFSET 3.10165 -0.590103 1.0647
                  CHANNELS 3 Zrotation Xrotation Yrotation
                  End Site
                  {
                    OFFSET 2.48547 -0.328903 0.83742
                  }
                }
              }
              JOINT lRing1
              {
                OFFSET 8.82822 0.546677 1.51678
                CHANNELS 3 Zrotation Xrotation Yrotation
                JOINT lRing2
                {
                  OFFSET 2.60934 -0.819778 -0.0198488
                  CHANNELS 3 Zrotation Xrotation Yrotation
                  End Site
                  {
                    OFFSET 2.33842 -0.294052 0.168128
                  }
                }
              }
              JOINT lPinky1
              {
                OFFSET 8.27202 -0.0477905 -0.4584
                CHANNELS 3 Zrotation Xrotation Yrotation
                JOINT lPinky2
                {
                  OFFSET 1.82734 -0.647385 -0.700984
                  CHANNELS 3 Zrotation Xrotation Yrotation
                  End Site
                  {
                    OFFSET 1.69225 -0.51767 -0.607171
                  }
                }
              }
            }
          }
        }
      }
    }
  }
  JOINT RHipJoint
  {
    OFFSET -8.77824 4.35084 1.2192
    CHANNELS 3 Zrotation Xrotation Yrotation
    JOINT RightUpLeg
    {
      OFFSET 0 -1.70687 -2.19456
      CHANNELS 3 Zrotation Xrotation Yrotation
      JOINT RightLeg
      {
        OFFSET 0 -36.8199 0.73152
        CHANNELS 3 Zrotation Xrotation Yrotation
        JOINT RightFoot
        {
          OFFSET 0.73152 -45.1104 -5.12064
          CHANNELS 3 Zrotation Xrotation Yrotation
          End Site
          {
            OFFSET -1.1221 -3.69964 12.103
          }
        }
      }
    }
  }
  JOINT LHipJoint
  {
    OFFSET 8.77824 4.35084 1.2192
    CHANNELS 3 Zrotation Xrotation Yrotation
    JOINT LeftUpLeg
    {
      OFFSET 0 -1.70687 -2.19456
      CHANNELS 3 Zrotation Xrotation Yrotation
      JOINT LeftLeg
      {
        OFFSET 0 -36.8199 0.73152
        CHANNELS 3 Zrotation Xrotation Yrotation
        JOINT LeftFoot
        {
          OFFSET -0.73152 -45.1104 -5.12064
          CHANNELS 3 Zrotation Xrotation Yrotation
          End Site
          {
            OFFSET 1.1221 -3.69964 12.103
          }
        }
      }
    }
  }
}
MOTION
Frames:	9
Frame Time:	0.00833333
60.2517 80.709 3.58411 -0.8434 1.7698 18.0517 0.571958 30.9789 -2.71072 1.25553 -10.685 -0.621013 -0.369086 -2.32843 -0.402557 -1.24423 -54.5861 -1.49382 -0.0 0.0 0.0 -0.0 0.0 0.0 -4.1724e-14 -2.02795e-14 -1.1955e-14 80.5624 30.4861 -6.0434 -18.5583 -11.2995 35.2859 -0.890481 -25.7711 -3.89071 6.51152e-10 -2.05742e-10 -2.07311e-10 1.1329e-09 -3.51566e-10 -3.4569e-10 6.51153e-10 -2.05741e-10 -2.07324e-10 7.73091 5.47488 0.417314 6.5115e-10 -2.05743e-10 -2.07302e-10 2.90554 0.965183 0.102902 6.51158e-10 -2.05743e-10 -2.07308e-10 10.2786 0.731801 0.0259123 6.51144e-10 -2.05741e-10 -2.07296e-10 2.22167 -0.733487 -0.20892 -4.18801e-14 -2.02736e-14 -1.20979e-14 -77.9727 24.3815 2.1883 17.3084 -9.96185 -32.4866 0.387514 -17.4295 2.52878 1.73229e-10 -5.57404e-10 -3.72733e-10 2.98757e-10 -9.62957e-10 -6.41973e-10 1.73221e-10 -5.57401e-10 -3.72723e-10 -7.73091 5.47488 -0.417314 1.73232e-10 -5.57404e-10 -3.72738e-10 -2.90554 0.965183 -0.102902 1.73224e-10 -5.57403e-10 -3.72735e-10 -10.2786 0.731801 -0.0259123 1.73234e-10 -5.57402e-10 -3.72744e-10 -2.22167 -0.733487 0.20892 -2.03217e-16 0.0 -3.88251e-19 6.71931 -49.187 10.0397 -0.532514 48.4246 0.978716 -2.27349 -3.82475 -9.81323 2.03217e-16 0.0 3.88251e-19 -0.469869 -48.2391 1.28616 0.517491 47.1914 -0.869505 2.01396 -3.18128 9.0701
60.2342 81.3112 3.72698 -0.8361 1.8201 17.9082 0.546569 30.4736 -2.74556 1.29436 -10.5906 -0.628428 -0.459309 -2.29194 -0.391172 -0.92114 -54.2205 -1.25859 -0.0 0.0 0.0 -0.0 0.0 0.0 -6.5807e-14 -3.38413e-15 3.76173e-14 80.6133 30.2233 -6.50172 -18.4624 -11.1924 35.0664 -0.883345 -25.6765 -3.87428 6.95638e-10 1.85043e-10 -3.17783e-10 1.20757e-09 3.22692e-10 -5.3599e-10 6.9564e-10 1.85045e-10 -3.17798e-10 7.73091 5.47488 0.417314 6.95637e-10 1.85042e-10 -3.17776e-10 2.90554 0.965183 0.102902 6.95645e-10 1.85042e-10 -3.17784e-10 10.2786 0.731801 0.0259123 6.95631e-10 1.85045e-10 -3.17772e-10 2.22167 -0.733487 -0.20892 -6.60553e-14 -3.37622e-15 3.75412e-14 -78.3171 23.2187 2.85788 17.3077 -9.96108 -32.485 0.402655 -17.752 2.57874 5.7004e-10 -3.56991e-10 9.89231e-11 9.80966e-10 -6.18274e-10 1.79493e-10 5.70029e-10 -3.56988e-10 9.89309e-11 -7.73091 5.47488 -0.417314 5.70044e-10 -3.56991e-10 9.8919e-11 -2.90554 0.965183 -0.102902 5.70038e-10 -3.5699e-10 9.89208e-11 -10.2786 0.731801 -0.0259123 5.70047e-10 -3.56988e-10 9.8911e-11 -2.22167 -0.733487 0.20892 -2.03217e-16 0.0 -3.88251e-19 6.22725 -48.1495 9.37652 -0.48677 46.8135 0.909919 -2.09538 -2.97342 -9.75356 2.03217e-16 0.0 3.88251e-19 -0.475176 -47.0616 1.20442 0.469084 45.3848 -0.800258 1.86537 -2.37394 9.05637
60.1498 81.8528 3.83253 -0.9434 1.9636 17.7661 0.526907 30.0075 -2.76007 1.30777 -10.5102 -0.633013 -0.525549 -2.28065 -0.385706 -0.69467 -53.7895 -1.09582 -0.0 0.0 0.0 -0.0 0.0 0.0 -7.42002e-14 -5.43552e-18 6.69904e-14 80.6894 29.9142 -6.95005 -18.362 -11.0812 34.8374 -0.872565 -25.5338 -3.84953 6.93238e-10 2.94848e-10 -2.50116e-10 1.20078e-09 5.11704e-10 -4.19106e-10 6.9324e-10 2.94849e-10 -2.50132e-10 7.73091 5.47488 0.417314 6.93237e-10 2.94846e-10 -2.50109e-10 2.90554 0.965183 0.102902 6.93245e-10 2.94847e-10 -2.50117e-10 10.2786 0.731801 0.0259123 6.93231e-10 2.94849e-10 -2.50106e-10 2.22167 -0.733487 -0.20892 -7.44957e-14 3.49426e-18 6.69407e-14 -78.5905 22.236 3.52211 17.2956 -9.94881 -32.4584 0.416458 -18.0384 2.62327 6.65972e-10 -3.95119e-10 2.74132e-10 1.1453e-09 -6.85445e-10 4.84061e-10 6.6596e-10 -3.95115e-10 2.74138e-10 -7.73091 5.47488 -0.417314 6.65976e-10 -3.95118e-10 2.74129e-10 -2.90554 0.965183 -0.102902 6.6597e-10 -3.95117e-10 2.7413e-10 -10.2786 0.731801 -0.0259123 6.6598e-10 -3.95115e-10 2.74119e-10 -2.22167 -0.733487 0.20892 -2.03217e-16 0.0 -3.88251e-19 5.79342 -47.0801 8.84359 -0.445938 45.2434 0.847816 -1.93159 -2.20789 -9.67886 2.03217e-16 0.0 3.88251e-19 -0.466633 -45.879 1.16427 0.427564 43.6679 -0.738594 1.71939 -1.60184 9.01483
60.1186 82.3629 3.95808 -0.8351 2.0817 17.5353 0.518322 29.5987 -2.74286 1.28008 -10.4479 -0.633182 -0.54226 -2.35829 -0.387522 -0.64051 -53.2097 -1.05272 -0.0 0.0 0.0 -0.0 0.0 0.0 -5.65757e-14 -2.28156e-14 6.60858e-14 80.8053 29.5114 -7.38022 -18.2488 -10.957 34.5798 -0.855218 -25.3023 -3.80946 6.31318e-10 -9.97935e-11 1.7066e-10 1.08974e-09 -1.70443e-10 3.07284e-10 6.3132e-10 -9.9792e-11 1.70644e-10 7.73091 5.47488 0.417314 6.31317e-10 -9.97945e-11 1.70665e-10 2.90554 0.965183 0.102902 6.31324e-10 -9.97944e-11 1.70659e-10 10.2786 0.731801 0.0259123 6.31311e-10 -9.97917e-11 1.7067e-10 2.22167 -0.733487 -0.20892 -5.6858e-14 -2.28071e-14 6.59973e-14 -78.7874 21.4968 4.18402 17.2695 -9.92219 -32.401 0.430006 -18.3162 2.66658 2.13336e-10 -9.03124e-10 -8.19657e-11 3.65226e-10 -1.56417e-09 -1.37842e-10 2.13327e-10 -9.03121e-10 -8.19597e-11 -7.73091 5.47488 -0.417314 2.1334e-10 -9.03123e-10 -8.19687e-11 -2.90554 0.965183 -0.102902 2.13334e-10 -9.03122e-10 -8.19681e-11 -10.2786 0.731801 -0.0259123 2.13344e-10 -9.0312e-10 -8.19782e-11 -2.22167 -0.733487 0.20892 -2.03217e-16 0.0 -3.88251e-19 5.40779 -45.9693 8.46957 -0.408592 43.7065 0.791639 -1.78767 -1.5596 -9.59164 2.03217e-16 0.0 3.88251e-19 -0.44549 -44.688 1.18369 0.391897 42.0593 -0.683645 1.57432 -0.861455 8.92726
60.0775 82.9084 4.15403 -0.8541 2.189 17.1814 0.511519 29.22 -2.71257 1.22435 -10.398 -0.632984 -0.531443 -2.48696 -0.391319 -0.679721 -52.532 -1.06919 -0.0 0.0 0.0 -0.0 0.0 0.0 -2.11742e-14 -6.2025e-14 4.79257e-14 80.946 29.0473 -7.79698 -18.1276 -10.8252 34.3053 -0.833756 -25.01 -3.75917 5.16409e-10 -8.03841e-10 8.33315e-10 8.85763e-10 -1.38707e-09 1.45093e-09 5.16411e-10 -8.03839e-10 8.333e-10 7.73091 5.47488 0.417314 5.16408e-10 -8.0384e-10 8.33318e-10 2.90554 0.965183 0.102902 5.16414e-10 -8.03841e-10 8.33315e-10 10.2786 0.731801 0.0259123 5.16401e-10 -8.03839e-10 8.33327e-10 2.22167 -0.733487 -0.20892 -2.14044e-14 -6.20178e-14 4.7758e-14 -78.9278 20.915 4.83697 17.2341 -9.88617 -32.3236 0.443536 -18.5899 2.70937 -5.98497e-10 -1.69476e-09 -7.59631e-10 -1.0333e-09 -2.9328e-09 -1.32084e-09 -5.98503e-10 -1.69476e-09 -7.59624e-10 -7.73091 5.47488 -0.417314 -5.98494e-10 -1.69476e-09 -7.59634e-10 -2.90554 0.965183 -0.102902 -5.985e-10 -1.69476e-09 -7.59633e-10 -10.2786 0.731801 -0.0259123 -5.9849e-10 -1.69476e-09 -7.59642e-10 -2.22167 -0.733487 0.20892 -2.03217e-16 0.0 -3.88251e-19 5.02662 -44.8398 8.17755 -0.374286 42.2057 0.740018 -1.6558 -0.981616 -9.48956 2.03217e-16 0.0 3.88251e-19 -0.446235 -43.4886 1.21983 0.360066 40.5166 -0.633308 1.43287 -0.139149 8.82057
60.0281 83.4139 4.29665 -0.9903 2.2835 16.9727 0.503349 28.851 -2.68167 1.16599 -10.3554 -0.632959 -0.534074 -2.55168 -0.398001 -0.693552 -51.9066 -1.07791 -0.0 0.0 0.0 -0.0 0.0 0.0 1.49473e-14 -9.64632e-14 2.54204e-14 81.0857 28.6052 -8.21384 -18.013 -10.7012 34.048 -0.813544 -24.7278 -3.71093 3.72039e-10 -1.46078e-09 1.42759e-09 6.31618e-10 -2.52238e-09 2.4758e-09 3.7204e-10 -1.46078e-09 1.42758e-09 7.73091 5.47488 0.417314 3.72037e-10 -1.46078e-09 1.42759e-09 2.90554 0.965183 0.102902 3.72041e-10 -1.46078e-09 1.4276e-09 10.2786 0.731801 0.0259123 3.7203e-10 -1.46078e-09 1.42761e-09 2.22167 -0.733487 -0.20892 1.47891e-14 -9.64578e-14 2.51703e-14 -79.0353 20.4126 5.48902 17.1918 -9.84328 -32.2313 0.453801 -18.7942 2.7414 -1.35426e-09 -2.3892e-09 -1.38773e-09 -2.33506e-09 -4.13325e-09 -2.41743e-09 -1.35426e-09 -2.3892e-09 -1.38773e-09 -7.73091 5.47488 -0.417314 -1.35425e-09 -2.3892e-09 -1.38774e-09 -2.90554 0.965183 -0.102902 -1.35426e-09 -2.3892e-09 -1.38773e-09 -10.2786 0.731801 -0.0259123 -1.35425e-09 -2.3892e-09 -1.38774e-09 -2.22167 -0.733487 0.20892 -2.03217e-16 0.0 -3.88251e-19 4.67201 -43.7025 7.93546 -0.343341 40.7562 0.692713 -1.53037 -0.438232 -9.36659 2.03217e-16 0.0 3.88251e-19 -0.451714 -42.2883 1.25604 0.331627 39.0294 -0.587187 1.30031 0.547499 8.71476
60.0599 83.861 4.37365 -0.7585 2.2157 16.9556 0.49033 28.4717 -2.66245 1.13044 -10.315 -0.633644 -0.591072 -2.43744 -0.40847 -0.567745 -51.4833 -1.01502 -0.0 0.0 0.0 -0.0 0.0 0.0 3.47318e-14 -1.0496e-13 1.14798e-14 81.2009 28.268 -8.64507 -17.9203 -10.6013 33.8417 -0.799444 -24.5265 -3.67671 2.21734e-10 -1.71409e-09 1.64324e-09 3.70073e-10 -2.96059e-09 2.84584e-09 2.21735e-10 -1.71409e-09 1.64323e-09 7.73091 5.47488 0.417314 2.21732e-10 -1.71409e-09 1.64324e-09 2.90554 0.965183 0.102902 2.21735e-10 -1.71409e-09 1.64324e-09 10.2786 0.731801 0.0259123 2.21725e-10 -1.71409e-09 1.64326e-09 2.22167 -0.733487 -0.20892 3.46463e-14 -1.04956e-13 1.11816e-14 -79.1293 19.9114 6.14689 17.145 -9.79607 -32.1291 0.4573 -18.8637 2.75231 -1.63867e-09 -2.60562e-09 -1.59514e-09 -2.82484e-09 -4.50742e-09 -2.7801e-09 -1.63867e-09 -2.60562e-09 -1.59514e-09 -7.73091 5.47488 -0.417314 -1.63867e-09 -2.60562e-09 -1.59515e-09 -2.90554 0.965183 -0.102902 -1.63868e-09 -2.60562e-09 -1.59515e-09 -10.2786 0.731801 -0.0259123 -1.63867e-09 -2.60562e-09 -1.59515e-09 -2.22167 -0.733487 0.20892 -2.03217e-16 0.0 -3.88251e-19 4.36916 -42.5678 7.71341 -0.316061 39.3733 0.649485 -1.40626 0.106328 -9.21693 2.03217e-16 0.0 3.88251e-19 -0.442904 -41.0947 1.27694 0.306252 37.5873 -0.54501 1.18083 1.18073 8.6297
59.9601 84.2734 4.48282 -0.8748 2.1305 16.8048 0.446559 28.0581 -2.64771 1.13239 -10.2945 -0.633056 -0.732436 -2.02087 -0.421706 -0.229584 -51.3962 -0.835736 -0.0 0.0 0.0 -0.0 0.0 0.0 2.90884e-14 -7.42963e-14 1.19609e-14 81.2959 28.0943 -9.13348 -17.8616 -10.5383 33.7119 -0.794754 -24.4581 -3.66514 5.17577e-11 -1.33914e-09 1.27923e-09 7.87453e-11 -2.31379e-09 2.21319e-09 5.17588e-11 -1.33914e-09 1.27922e-09 7.73091 5.47488 0.417314 5.17558e-11 -1.33914e-09 1.27923e-09 2.90554 0.965183 0.102902 5.17586e-11 -1.33914e-09 1.27924e-09 10.2786 0.731801 0.0259123 5.17477e-11 -1.33914e-09 1.27925e-09 2.22167 -0.733487 -0.20892 2.90899e-14 -7.42945e-14 1.16689e-14 -79.2383 19.3873 6.86733 17.098 -9.74858 -32.0268 0.451122 -18.7435 2.73341 -1.18229e-09 -2.09849e-09 -1.13878e-09 -2.03855e-09 -3.63103e-09 -1.98475e-09 -1.18229e-09 -2.09848e-09 -1.13878e-09 -7.73091 5.47488 -0.417314 -1.18229e-09 -2.09849e-09 -1.13879e-09 -2.90554 0.965183 -0.102902 -1.1823e-09 -2.09849e-09 -1.13879e-09 -10.2786 0.731801 -0.0259123 -1.18229e-09 -2.09848e-09 -1.13879e-09 -2.22167 -0.733487 0.20892 -2.03217e-16 0.0 -3.88251e-19 4.12501 -41.4485 7.52233 -0.29193 38.061 0.609646 -1.27671 0.680381 -8.99997 2.03217e-16 0.0 3.88251e-19 -0.4056 -39.9064 1.29733 0.283013 36.1721 -0.506114 1.07533 1.75127 8.57352
59.8423 84.6779 4.68678 -1.1642 2.2343 16.3955 0.38212 27.6271 -2.63436 1.15563 -10.2903 -0.631614 -0.929706 -1.3942 -0.43768 0.247899 -51.5335 -0.581747 -0.0 0.0 0.0 -0.0 0.0 0.0 8.62818e-15 -1.82874e-14 1.91734e-14 81.3841 28.0268 -9.66019 -17.827 -10.5015 33.6348 -0.795892 -24.4738 -3.66782 -1.43767e-10 -5.69266e-10 5.40468e-10 -2.53912e-10 -9.84974e-10 9.32046e-10 -1.43766e-10 -5.69266e-10 5.40458e-10 7.73091 5.47488 0.417314 -1.4377e-10 -5.69266e-10 5.40469e-10 2.90554 0.965183 0.102902 -1.43766e-10 -5.69268e-10 5.40472e-10 10.2786 0.731801 0.0259123 -1.43778e-10 -5.69264e-10 5.40487e-10 2.22167 -0.733487 -0.20892 8.73499e-15 -1.82877e-14 1.89187e-14 -79.3441 18.8826 7.62857 17.0481 -9.69828 -31.9189 0.437918 -18.4809 2.69225 -2.59497e-10 -1.11889e-09 -2.64629e-10 -4.48737e-10 -1.93801e-09 -4.60527e-10 -2.59498e-10 -1.11889e-09 -2.64625e-10 -7.73091 5.47488 -0.417314 -2.59495e-10 -1.11889e-09 -2.64631e-10 -2.90554 0.965183 -0.102902 -2.59506e-10 -1.11889e-09 -2.64631e-10 -10.2786 0.731801 -0.0259123 -2.59495e-10 -1.11889e-09 -2.64639e-10 -2.22167 -0.733487 0.20892 -2.03217e-16 0.0 -3.88251e-19 3.92089 -40.3363 7.36787 -0.270107 36.8112 0.57275 -1.14865 1.25894 -8.73173 2.03217e-16 0.0 3.88251e-19 -0.352747 -38.7207 1.31934 0.261599 34.7946 -0.470174 0.980415 2.26992 8.53421
